<svg width="32" height="32" viewBox="0 0 32 32" fill="none" xmlns="http://www.w3.org/2000/svg">
<path fill-rule="evenodd" clip-rule="evenodd" d="M4 4.67925C4 4.30411 4.28475 4 4.636 4H6.54974C6.89715 4 7.23354 4.13017 7.50031 4.36783C7.76709 4.60549 7.94734 4.93557 8.00967 5.30058L8.56079 8.5283H26.516C26.7334 8.5283 26.9481 8.57929 27.1449 8.67767C27.3418 8.77605 27.516 8.91941 27.6553 9.09762C27.7946 9.27584 27.8955 9.48455 27.9509 9.709C28.0064 9.93346 28.0149 10.1682 27.9761 10.3966L26.127 21.2645C26.0648 21.6297 25.8846 21.96 25.6178 22.1979C25.351 22.4358 25.0144 22.566 24.6669 22.566H10.9026C10.5552 22.566 10.2188 22.4359 9.95199 22.1982C9.68521 21.9606 9.50496 21.6305 9.44264 21.2655L7.41444 9.38705C7.40495 9.34997 7.39833 9.31163 7.39485 9.27232L6.7583 5.54429C6.7494 5.49214 6.72365 5.44499 6.68554 5.41104C6.64743 5.37709 6.59937 5.35849 6.54974 5.35849H4.636C4.28475 5.35849 4 5.05438 4 4.67925ZM8.79275 9.88679L10.694 21.0218C10.7029 21.0739 10.7287 21.121 10.7668 21.155C10.8049 21.189 10.8529 21.2075 10.9026 21.2075H24.6669C24.7165 21.2075 24.7646 21.1889 24.8027 21.155C24.8408 21.121 24.8666 21.0738 24.8755 21.0216L26.7246 10.1537C26.7301 10.1211 26.7289 10.0875 26.721 10.0555C26.7131 10.0234 26.6987 9.99358 26.6788 9.96812C26.6589 9.94267 26.634 9.92219 26.6058 9.90813C26.5777 9.89408 26.5471 9.88679 26.516 9.88679H8.79275Z" fill="#455A64"/>
<path d="M10.694 21.0218L8.79275 9.88679H26.516C26.5471 9.88679 26.5777 9.89408 26.6058 9.90813C26.634 9.92219 26.6589 9.94267 26.6788 9.96812C26.6987 9.99358 26.7131 10.0234 26.721 10.0555C26.7289 10.0875 26.7301 10.1211 26.7246 10.1537L24.8755 21.0216C24.8666 21.0738 24.8408 21.121 24.8027 21.155C24.7646 21.1889 24.7165 21.2075 24.6669 21.2075H10.9026C10.8529 21.2075 10.8049 21.189 10.7668 21.155C10.7287 21.121 10.7029 21.0739 10.694 21.0218Z" fill="#455A64"/>
<path fill-rule="evenodd" clip-rule="evenodd" d="M11.42 26.1887C11.3029 26.1887 11.208 26.29 11.208 26.4151C11.208 26.5401 11.3029 26.6415 11.42 26.6415C11.5371 26.6415 11.632 26.5401 11.632 26.4151C11.632 26.29 11.5371 26.1887 11.42 26.1887ZM9.936 26.4151C9.936 25.5398 10.6004 24.8302 11.42 24.8302C12.2396 24.8302 12.904 25.5398 12.904 26.4151C12.904 27.2904 12.2396 28 11.42 28C10.6004 28 9.936 27.2904 9.936 26.4151Z" fill="#455A64"/>
<path fill-rule="evenodd" clip-rule="evenodd" d="M24.14 26.1887C24.0229 26.1887 23.928 26.29 23.928 26.4151C23.928 26.5401 24.0229 26.6415 24.14 26.6415C24.2571 26.6415 24.352 26.5401 24.352 26.4151C24.352 26.29 24.2571 26.1887 24.14 26.1887ZM22.656 26.4151C22.656 25.5398 23.3204 24.8302 24.14 24.8302C24.9596 24.8302 25.624 25.5398 25.624 26.4151C25.624 27.2904 24.9596 28 24.14 28C23.3204 28 22.656 27.2904 22.656 26.4151Z" fill="#455A64"/>
<path d="M11.42 28C12.2396 28 12.904 27.2904 12.904 26.4151C12.904 25.5398 12.2396 24.8302 11.42 24.8302C10.6004 24.8302 9.936 25.5398 9.936 26.4151C9.936 27.2904 10.6004 28 11.42 28Z" fill="#455A64"/>
<path d="M24.14 28C24.9596 28 25.624 27.2904 25.624 26.4151C25.624 25.5398 24.9596 24.8302 24.14 24.8302C23.3204 24.8302 22.656 25.5398 22.656 26.4151C22.656 27.2904 23.3204 28 24.14 28Z" fill="#455A64"/>
</svg>
