<svg width="33" height="32" viewBox="0 0 33 32" fill="none" xmlns="http://www.w3.org/2000/svg">
<path d="M26.8214 22.125C28.3123 19.6116 28.8345 16.6405 28.2898 13.7694C27.7451 10.8984 26.171 8.32491 23.8631 6.53228C21.5553 4.73965 18.6724 3.85117 15.7558 4.03368C12.8393 4.2162 10.0897 5.45714 8.02329 7.52349C5.95693 9.58985 4.71597 12.3395 4.53345 15.256C4.35092 18.1726 5.23938 21.0555 7.032 23.3633C8.82462 25.6712 11.3981 27.2453 14.2691 27.79C17.1402 28.3347 20.1113 27.8126 22.6247 26.3217L22.6247 26.3215L26.7692 27.5057C26.9407 27.5547 27.1222 27.557 27.2948 27.5122C27.4674 27.4675 27.625 27.3774 27.7511 27.2513C27.8772 27.1252 27.9673 26.9677 28.012 26.795C28.0567 26.6224 28.0545 26.4409 28.0055 26.2695L26.8213 22.1249L26.8214 22.125Z" stroke="white" stroke-width="2" stroke-linecap="round" stroke-linejoin="round"/>
<path d="M20.5 14H12.5" stroke="white" stroke-width="2" stroke-linecap="round" stroke-linejoin="round"/>
<path d="M20.5 18H12.5" stroke="white" stroke-width="2" stroke-linecap="round" stroke-linejoin="round"/>
</svg>
