<svg width="250" height="152" viewBox="0 0 250 152" fill="none" xmlns="http://www.w3.org/2000/svg">
<path d="M0 110.451H250V140.92H0V110.451Z" fill="#00ADB4"/>
<path d="M0 146.114H250V152H0V146.114Z" fill="#00ADB4"/>
<path d="M92.2701 51.936H105.501V65.0932H92.2701V51.936Z" fill="white"/>
<path d="M108.635 51.936H121.866V65.0932H108.635V51.936Z" fill="white"/>
<path d="M125 51.936H138.231V65.0932H125V51.936Z" fill="white"/>
<path d="M92.2701 35.6631H105.501V48.8203H92.2701V35.6631Z" fill="white"/>
<path d="M108.635 35.6631H121.866V48.8203H108.635V35.6631Z" fill="white"/>
<path d="M92.2701 19.3896H105.501V32.5468H92.2701V19.3896Z" fill="white"/>
<path d="M118.427 13.9365L126.017 3.1588L136.855 10.7054L129.266 21.4832L118.427 13.9365Z" fill="white"/>
<path d="M144.499 0H157.73V13.1572H144.499V0Z" fill="white"/>
<path d="M130.359 32.2905L140.926 24.3723L148.889 34.8801L138.322 42.7983L130.359 32.2905Z" fill="white"/>
<path d="M35.0279 121.909C41.2165 121.909 45.0112 118.379 45.0928 112.874H38.129C37.9658 115.052 36.7825 116.229 35.1367 116.229C33.1646 116.229 31.8725 114.552 31.8725 111.143C31.8725 107.735 33.1646 106.058 35.1367 106.058C36.7961 106.058 37.925 107.235 38.129 109.412H45.0928C45.052 104.002 41.1757 100.486 35.0279 100.486C28.2274 100.486 24.2014 104.814 24.2014 111.197C24.2014 117.581 28.2274 121.909 35.0279 121.909Z" fill="white"/>
<path d="M47.8074 121.531H55.3153V110.71C55.3153 108.33 56.961 106.761 59.178 106.761C59.9533 106.761 61.2046 106.883 61.9526 107.14V100.77C61.3542 100.594 60.7013 100.486 60.0485 100.486C57.8179 100.486 56.0769 101.784 55.3153 104.705H55.0977V100.756H47.8074V121.531Z" fill="white"/>
<path d="M72.8994 121.909C79.7 121.909 83.7259 117.581 83.7259 111.197C83.7259 104.814 79.7 100.486 72.8994 100.486C66.0988 100.486 62.0729 104.814 62.0729 111.197C62.0729 117.581 66.0988 121.909 72.8994 121.909ZM72.9538 116.391C70.9408 116.391 69.7439 114.403 69.7439 111.143C69.7439 107.884 70.9408 105.896 72.9538 105.896C74.8579 105.896 76.0548 107.884 76.0548 111.143C76.0548 114.403 74.8579 116.391 72.9538 116.391Z" fill="white"/>
<path d="M105.486 107.519C105.295 103.123 101.623 100.486 95.5839 100.486C89.613 100.486 85.9271 102.92 85.9543 107.248C85.9271 110.521 88.0625 112.618 92.3196 113.361L96.0192 114.011C97.6513 114.308 98.3858 114.741 98.413 115.525C98.3858 116.391 97.3929 116.878 96.0192 116.878C94.319 116.878 93.1221 116.148 92.9181 114.822H85.4647C85.8727 119.082 89.5722 121.909 95.9648 121.909C101.745 121.909 106.002 119.11 106.03 114.66C106.002 111.59 103.935 109.804 99.6643 109.033L95.4207 108.276C93.8294 107.992 93.3805 107.424 93.4077 106.815C93.3805 105.95 94.455 105.463 95.7471 105.463C97.2297 105.463 98.4674 106.247 98.5762 107.519H105.486Z" fill="white"/>
<path d="M127.619 107.519C127.429 103.123 123.757 100.486 117.718 100.486C111.747 100.486 108.061 102.92 108.088 107.248C108.061 110.521 110.196 112.618 114.453 113.361L118.153 114.011C119.785 114.308 120.519 114.741 120.547 115.525C120.519 116.391 119.527 116.878 118.153 116.878C116.453 116.878 115.256 116.148 115.052 114.822H107.598C108.006 119.082 111.706 121.909 118.098 121.909C123.879 121.909 128.136 119.11 128.163 114.66C128.136 111.59 126.069 109.804 121.798 109.033L117.554 108.276C115.963 107.992 115.514 107.424 115.541 106.815C115.514 105.95 116.589 105.463 117.881 105.463C119.363 105.463 120.601 106.247 120.71 107.519H127.619Z" fill="white"/>
<path d="M143.116 100.756H139.525V95.7788H132.017V100.756H129.351V106.166H132.017V115.552C131.963 119.908 134.669 122.112 139.851 121.828C141.551 121.733 142.816 121.382 143.496 121.179L142.408 115.931C142.123 115.999 141.388 116.148 140.939 116.148C139.96 116.148 139.525 115.715 139.525 114.849V106.166H143.116V100.756Z" fill="white"/>
<path d="M155.582 121.909C161.376 121.909 165.103 119.15 165.81 114.822H158.955C158.52 115.999 157.282 116.661 155.745 116.661C153.515 116.661 152.209 115.201 152.209 113.199V112.874H165.81V111.143C165.81 104.53 161.73 100.486 155.419 100.486C148.945 100.486 144.81 104.759 144.81 111.197C144.81 117.919 148.891 121.909 155.582 121.909ZM152.209 108.763C152.25 106.964 153.746 105.733 155.582 105.733C157.446 105.733 158.86 106.978 158.901 108.763H152.209Z" fill="white"/>
<path d="M174.312 121.855C177.033 121.855 179.086 120.935 180.351 118.609H180.514V121.531H187.533V107.302C187.533 103.461 183.874 100.486 177.903 100.486C171.66 100.486 168.586 103.732 168.328 107.519H175.237C175.414 106.234 176.366 105.625 177.794 105.625C179.1 105.625 180.025 106.22 180.025 107.302V107.356C180.025 108.56 178.692 108.939 175.183 109.196C170.871 109.507 167.512 111.238 167.512 115.796C167.512 119.935 170.314 121.855 174.312 121.855ZM176.76 117.148C175.482 117.148 174.584 116.526 174.584 115.363C174.584 114.295 175.346 113.47 177.087 113.199C178.284 113.01 179.29 112.766 180.079 112.442V114.173C180.079 116.066 178.461 117.148 176.76 117.148Z" fill="white"/>
<path d="M190.737 121.531H198.245V109.412C198.245 107.6 199.197 106.491 200.747 106.491C202.298 106.491 203.304 107.6 203.304 109.412V121.531H210.486V109.412C210.486 107.6 211.438 106.491 212.988 106.491C214.539 106.491 215.545 107.6 215.545 109.412V121.531H223.053V107.519C223.053 103.258 220.306 100.486 216.307 100.486C213.206 100.486 210.703 102.163 209.996 104.705H209.778C209.343 102.163 207.004 100.486 204.066 100.486C201.169 100.486 198.952 102.109 198.082 104.705H197.864V100.756H190.737V121.531Z" fill="white"/>
</svg>
