<svg width="16" height="16" viewBox="0 0 16 16" fill="none" xmlns="http://www.w3.org/2000/svg">
<path fill-rule="evenodd" clip-rule="evenodd" d="M2.99963 5.875C2.9306 5.875 2.87463 5.93096 2.87463 6V13C2.87463 13.069 2.9306 13.125 2.99963 13.125H12.9996C13.0687 13.125 13.1246 13.069 13.1246 13V6C13.1246 5.93096 13.0687 5.875 12.9996 5.875H2.99963ZM2.12463 6C2.12463 5.51675 2.51638 5.125 2.99963 5.125H12.9996C13.4829 5.125 13.8746 5.51675 13.8746 6V13C13.8746 13.4832 13.4829 13.875 12.9996 13.875H2.99963C2.51638 13.875 2.12463 13.4832 2.12463 13V6Z" fill="#18191F"/>
<path fill-rule="evenodd" clip-rule="evenodd" d="M7.99963 1.375C7.50235 1.375 7.02544 1.57254 6.67381 1.92417C6.32218 2.27581 6.12463 2.75272 6.12463 3.25V5.5C6.12463 5.70711 5.95674 5.875 5.74963 5.875C5.54253 5.875 5.37463 5.70711 5.37463 5.5V3.25C5.37463 2.55381 5.6512 1.88613 6.14348 1.39384C6.63576 0.901562 7.30344 0.625 7.99963 0.625C8.69583 0.625 9.36351 0.901562 9.85579 1.39384C10.3481 1.88613 10.6246 2.55381 10.6246 3.25V5.5C10.6246 5.70711 10.4567 5.875 10.2496 5.875C10.0425 5.875 9.87463 5.70711 9.87463 5.5V3.25C9.87463 2.75272 9.67709 2.27581 9.32546 1.92417C8.97383 1.57254 8.49691 1.375 7.99963 1.375Z" fill="#18191F"/>
</svg>
