<svg width="16" height="16" viewBox="0 0 16 16" fill="none" xmlns="http://www.w3.org/2000/svg">
<path fill-rule="evenodd" clip-rule="evenodd" d="M1.625 3.5C1.625 3.29289 1.79289 3.125 2 3.125H14C14.2071 3.125 14.375 3.29289 14.375 3.5V12C14.375 12.2321 14.2828 12.4546 14.1187 12.6187C13.9546 12.7828 13.7321 12.875 13.5 12.875H2.5C2.26794 12.875 2.04538 12.7828 1.88128 12.6187C1.71719 12.4546 1.625 12.2321 1.625 12V3.5ZM2.375 3.875V12C2.375 12.0332 2.38817 12.0649 2.41161 12.0884C2.43505 12.1118 2.46685 12.125 2.5 12.125H13.5C13.5332 12.125 13.5649 12.1118 13.5884 12.0884C13.6118 12.0649 13.625 12.0332 13.625 12V3.875H2.375Z" fill="#18191F"/>
<path fill-rule="evenodd" clip-rule="evenodd" d="M1.72357 3.24661C1.86352 3.09394 2.10073 3.08362 2.2534 3.22357L8 8.49129L13.7466 3.22357C13.8993 3.08362 14.1365 3.09394 14.2764 3.24661C14.4164 3.39928 14.4061 3.63649 14.2534 3.77643L8.2534 9.27643C8.11003 9.40786 7.88998 9.40786 7.74661 9.27643L1.74661 3.77643C1.59394 3.63649 1.58362 3.39928 1.72357 3.24661Z" fill="#18191F"/>
</svg>
