<svg width="16" height="16" viewBox="0 0 16 16" fill="none" xmlns="http://www.w3.org/2000/svg">
<path fill-rule="evenodd" clip-rule="evenodd" d="M8 2.375C5.99797 2.375 4.375 3.99797 4.375 6C4.375 8.00203 5.99797 9.625 8 9.625C10.002 9.625 11.625 8.00203 11.625 6C11.625 3.99797 10.002 2.375 8 2.375ZM3.625 6C3.625 3.58375 5.58375 1.625 8 1.625C10.4162 1.625 12.375 3.58375 12.375 6C12.375 8.41625 10.4162 10.375 8 10.375C5.58375 10.375 3.625 8.41625 3.625 6Z" fill="#18191F"/>
<path fill-rule="evenodd" clip-rule="evenodd" d="M8.00008 10.375C6.83706 10.375 5.69451 10.681 4.68721 11.2624C3.67991 11.8438 2.84334 12.68 2.26154 13.687C2.15793 13.8663 1.92857 13.9277 1.74924 13.8241C1.56991 13.7205 1.50852 13.4912 1.61212 13.3118C2.25977 12.1908 3.19101 11.26 4.31231 10.6128C5.4336 9.96567 6.70545 9.62499 8.00009 9.625C9.29474 9.62501 10.5666 9.96572 11.6879 10.6129C12.8091 11.2601 13.7404 12.1909 14.388 13.312C14.4916 13.4913 14.4302 13.7206 14.2509 13.8243C14.0715 13.9279 13.8422 13.8665 13.7386 13.6871C13.1568 12.6801 12.3202 11.8439 11.3129 11.2625C10.3057 10.6811 9.16311 10.375 8.00008 10.375Z" fill="#18191F"/>
</svg>
