<svg width="24" height="24" viewBox="0 0 24 24" fill="none" xmlns="http://www.w3.org/2000/svg">
<path d="M20.2496 5.25L3.74963 5.25001" stroke="#455A64" stroke-linecap="round" stroke-linejoin="round"/>
<path d="M9.75 9.75V15.75" stroke="#455A64" stroke-linecap="round" stroke-linejoin="round"/>
<path d="M14.25 9.75V15.75" stroke="#455A64" stroke-linecap="round" stroke-linejoin="round"/>
<path d="M18.7496 5.25V19.5C18.7496 19.6989 18.6706 19.8897 18.53 20.0303C18.3893 20.171 18.1985 20.25 17.9996 20.25H5.99963C5.80072 20.25 5.60996 20.171 5.4693 20.0303C5.32865 19.8897 5.24963 19.6989 5.24963 19.5V5.25" stroke="#455A64" stroke-linecap="round" stroke-linejoin="round"/>
<path d="M15.75 5.25V3.75C15.75 3.35218 15.592 2.97064 15.3107 2.68934C15.0294 2.40804 14.6478 2.25 14.25 2.25H9.75C9.35218 2.25 8.97064 2.40804 8.68934 2.68934C8.40804 2.97064 8.25 3.35218 8.25 3.75V5.25" stroke="#455A64" stroke-linecap="round" stroke-linejoin="round"/>
</svg>
